REM DIRINDEX 1\2,1\3,1\4,1\5
REM DIRNAME cjc005,folder01,folder02,folder03,folder04
TITLE ""
FILE "P1Q_t_0570-0579.mp3" MP3
  TRACK 01 AUDIO
    TITLE "3:cjc005_2613"
    INDEX 01 00:00:00
  TRACK 02 AUDIO
    TITLE "0:"
    INDEX 01 00:01:03
  TRACK 03 AUDIO
    TITLE "4:cjc005_2614"
    INDEX 01 00:01:34
  TRACK 04 AUDIO
    TITLE "0:"
    INDEX 01 00:02:51
  TRACK 05 AUDIO
    TITLE "5:cjc005_2615"
    INDEX 01 00:03:04
  TRACK 06 AUDIO
    TITLE "0:"
    INDEX 01 00:06:45
  TRACK 07 AUDIO
    TITLE "3:cjc005_2616"
    INDEX 01 00:07:29
  TRACK 08 AUDIO
    TITLE "0:"
    INDEX 01 00:08:52
  TRACK 09 AUDIO
    TITLE "4:cjc005_2617"
    INDEX 01 00:09:04
  TRACK 10 AUDIO
    TITLE "0:"
    INDEX 01 00:11:09
  TRACK 11 AUDIO
    TITLE "5:cjc005_2618"
    INDEX 01 00:11:35
  TRACK 12 AUDIO
    TITLE "0:"
    INDEX 01 00:15:15
  TRACK 13 AUDIO
    TITLE "3:cjc005_2619"
    INDEX 01 00:15:68
  TRACK 14 AUDIO
    TITLE "0:"
    INDEX 01 00:17:16
  TRACK 15 AUDIO
    TITLE "4:cjc005_2620"
    INDEX 01 00:17:47
  TRACK 16 AUDIO
    TITLE "0:"
    INDEX 01 00:19:09
  TRACK 17 AUDIO
    TITLE "5:cjc005_2621"
    INDEX 01 00:19:32
  TRACK 18 AUDIO
    TITLE "0:"
    INDEX 01 00:24:00
  TRACK 19 AUDIO
    TITLE "3:cjc005_2622"
    INDEX 01 00:24:57
  TRACK 20 AUDIO
    TITLE "0:"
    INDEX 01 00:26:03
  TRACK 21 AUDIO
    TITLE "4:cjc005_2623"
    INDEX 01 00:26:34
  TRACK 22 AUDIO
    TITLE "0:"
    INDEX 01 00:28:00
  TRACK 23 AUDIO
    TITLE "5:cjc005_2624"
    INDEX 01 00:28:21
  TRACK 24 AUDIO
    TITLE "0:"
    INDEX 01 00:31:51
  TRACK 25 AUDIO
    TITLE "3:cjc005_2625"
    INDEX 01 00:32:31
  TRACK 26 AUDIO
    TITLE "0:"
    INDEX 01 00:33:42
  TRACK 27 AUDIO
    TITLE "4:cjc005_2626"
    INDEX 01 00:33:69
  TRACK 28 AUDIO
    TITLE "0:"
    INDEX 01 00:35:12
  TRACK 29 AUDIO
    TITLE "5:cjc005_2627"
    INDEX 01 00:35:35
  TRACK 30 AUDIO
    TITLE "0:"
    INDEX 01 00:38:10
  TRACK 31 AUDIO
    TITLE "3:cjc005_2628"
    INDEX 01 00:38:63
  TRACK 32 AUDIO
    TITLE "0:"
    INDEX 01 00:40:13
  TRACK 33 AUDIO
    TITLE "4:cjc005_2629"
    INDEX 01 00:40:42
  TRACK 34 AUDIO
    TITLE "0:"
    INDEX 01 00:41:63
  TRACK 35 AUDIO
    TITLE "5:cjc005_2630"
    INDEX 01 00:42:14
  TRACK 36 AUDIO
    TITLE "0:"
    INDEX 01 00:46:13
  TRACK 37 AUDIO
    TITLE "3:cjc005_2631"
    INDEX 01 00:46:68
  TRACK 38 AUDIO
    TITLE "0:"
    INDEX 01 00:48:04
  TRACK 39 AUDIO
    TITLE "4:cjc005_2632"
    INDEX 01 00:48:36
  TRACK 40 AUDIO
    TITLE "0:"
    INDEX 01 00:49:39
  TRACK 41 AUDIO
    TITLE "5:cjc005_2633"
    INDEX 01 00:49:63
  TRACK 42 AUDIO
    TITLE "0:"
    INDEX 01 00:53:09
  TRACK 43 AUDIO
    TITLE "3:cjc005_2634"
    INDEX 01 00:53:64
  TRACK 44 AUDIO
    TITLE "0:"
    INDEX 01 00:55:12
  TRACK 45 AUDIO
    TITLE "4:cjc005_2635"
    INDEX 01 00:55:34
  TRACK 46 AUDIO
    TITLE "0:"
    INDEX 01 00:56:63
  TRACK 47 AUDIO
    TITLE "5:cjc005_2636"
    INDEX 01 00:57:15
  TRACK 48 AUDIO
    TITLE "0:"
    INDEX 01 01:01:34
  TRACK 49 AUDIO
    TITLE "3:cjc005_2637"
    INDEX 01 01:02:12
  TRACK 50 AUDIO
    TITLE "0:"
    INDEX 01 01:03:33
  TRACK 51 AUDIO
    TITLE "4:cjc005_2638"
    INDEX 01 01:03:63
  TRACK 52 AUDIO
    TITLE "0:"
    INDEX 01 01:05:30
  TRACK 53 AUDIO
    TITLE "5:cjc005_2639"
    INDEX 01 01:05:52
  TRACK 54 AUDIO
    TITLE "0:"
    INDEX 01 01:09:63
  TRACK 55 AUDIO
    TITLE "3:cjc005_2640"
    INDEX 01 01:10:47
  TRACK 56 AUDIO
    TITLE "0:"
    INDEX 01 01:11:66
  TRACK 57 AUDIO
    TITLE "4:cjc005_2641"
    INDEX 01 01:12:21
  TRACK 58 AUDIO
    TITLE "0:"
    INDEX 01 01:13:51
  TRACK 59 AUDIO
    TITLE "5:cjc005_2642"
    INDEX 01 01:14:00
  TRACK 60 AUDIO
    TITLE "0:"
    INDEX 01 01:17:12
